<?xml version="1.0" encoding="utf-8"?>
<!-- Generator: Adobe Illustrator 25.4.1, SVG Export Plug-In . SVG Version: 6.00 Build 0)  -->
<svg version="1.1" id="Capa_1" xmlns="http://www.w3.org/2000/svg" xmlns:xlink="http://www.w3.org/1999/xlink" x="0px" y="0px"
	 viewBox="0 0 159.2 117" style="enable-background:new 0 0 159.2 117;" xml:space="preserve">
<style type="text/css">
	.st0{fill-rule:evenodd;clip-rule:evenodd;fill:#FEFEFE;}
	.st1{clip-path:url(#SVGID_00000050644878154902069820000013408693904045533365_);}
	.st2{fill:#C4A040;}
	.st3{fill:#E1251B;}
</style>
<desc>Created with Sketch.</desc>
<g id="_xD83D__xDC49_-Symbols">
	<g id="Group-263">
		<polygon id="Fill-1" class="st0" points="-0.1,0 -0.1,105.2 79.3,117 159.2,105.2 159.2,0 		"/>
		<g>
			<g>
				<g>
					<defs>
						<path id="SVGID_1_" d="M112.2,74.4c0,0.1-0.1,0.2-0.1,0.2l-0.7,4.9h0.4v-0.8l0.8-0.8l0.4-2.8v-1.1h-0.7L112.2,74.4z
							 M98.3,67.9c0,0.1,0.1,0.2,0.1,0.3l0.1,0.3h0.7l0-3.1l-0.9-0.9V67.9z M105,76.4v-4c-0.3-0.2-0.6-0.3-1-0.4v4.4
							c0,1.2,0.2,1.5,0.2,1.5c0.1,0.1,0.5,0.1,1.2,0.2c0,0-0.1,0-0.1-0.1C105.2,78,105,77.8,105,76.4z M112,64.4l-0.2-0.2v-0.8H111
							v4.5c0,0.1,0.1,0.2,0.1,0.3l0.1,0.3h0.8V64.4z M118.8,71v-6.1c-0.1,0-0.2,0-0.3,0h-0.7v6.2h0.1
							C118.2,71.1,118.5,71.1,118.8,71z M71.4,63.1h-0.5l-0.2,0.5l6.1,14l0.4,0.4l0.4-0.3l0-0.5l-6.1-13.8L71.4,63.1z M63.3,68.4
							l-1.6,1.5v8.4c0.4-0.3,0.7-0.6,1-0.9v-7.6l1.6-1.5v-0.7h-1V68.4z M56.3,79.9c1.6-0.2,3.2-0.5,4.7-1v-0.2l0.3-0.2
							c0.1-0.1,0.2-0.2,0.3-0.2l-0.2,0.1C59.8,79.2,58.1,79.7,56.3,79.9z M53.5,60.7C53.5,60.7,53.5,60.7,53.5,60.7
							c-1.8,0-3.1,0.9-4.2,2.8c-0.9,1.6-1.4,3.7-1.4,6.2c0,5.5,1.8,8.2,5.4,8.3c-2.9-0.6-4.4-3.4-4.4-8.3c0-2.5,0.5-4.6,1.4-6.3
							C51.2,61.9,52.2,61,53.5,60.7z M105,64.9c-0.1,0-0.3,0-0.4,0H104v5.5c0.4-0.1,0.7-0.2,1-0.5V64.9z M133.4,71.6
							c0-4,0.9-6.3,2.7-6.8c-0.1,0-0.1,0-0.2,0c-2.4,0-3.5,2.3-3.5,6.9c0,3.1,0.6,6.9,3.5,6.9c0.1,0,0.1,0,0.2,0
							C133.9,77.7,133.4,74.4,133.4,71.6z M107.8,67.3c0,0.2,0,0.3-0.1,0.5v6.8c0,0.2,0.1,0.3,0.1,0.5l0,0.4h0.9v-8.5h-0.9
							L107.8,67.3z M66.6,73.7h1l1.1-2.6L68.3,70L66.6,73.7z M61.3,63.1c0,0.7-0.3,1.3-0.8,1.9c-0.5,0.5-1.1,0.8-1.7,1
							c0,0,0.1,0,0.1,0c1,0,2-0.4,2.7-1.1c0.5-0.5,0.8-1.1,0.8-1.8c0-1.2-0.9-2.3-2.5-3.1c-1-0.5-2.4-0.8-3.9-1c1,0.2,2,0.4,2.8,0.8
							C60.4,60.7,61.3,61.9,61.3,63.1z M84.7,67.9v0.5h0.8l0.1-0.3c0.7-2,1.6-2.8,2.9-3.2v0C86.6,65.1,85.5,65.7,84.7,67.9z
							 M94.2,65.1c-0.3-0.1-0.6-0.1-1-0.1v12.7l1.3,1.2v0.8h1v-0.7l-1.3-1.2V65.1z M83.5,68.6L83.5,68.6l-0.1-4.1l-0.9,0.8l0,12.3
							l1.3,1.2v0.8h1v-0.7l-1.3-1.2L83.5,68.6z M118.8,73.9l-0.8-1.2h-0.2v4.9l1.3,1.2v0.8h1v-0.7l-1.3-1.2V73.9z M144.4,67
							c-1.4-2.3-3.6-3.6-6.6-3.8c2.4,0.4,4.3,1.6,5.6,3.7c0.8,1.3,1.2,2.8,1.2,4.5c0,2.4-0.8,4.4-2.3,6.1c-1.2,1.3-2.6,2.1-4.4,2.4
							c2.2-0.2,4.1-1,5.5-2.5c1.5-1.7,2.3-3.7,2.3-6C145.6,69.8,145.2,68.3,144.4,67z M124,72.2c2.1-0.7,3.2-2.1,3.2-4.1
							c0-3.7-3-4.4-5.6-4.6c2.3,0.3,4.6,1.4,4.6,4.6c0,1.4-0.6,3.3-3.1,4.2l3.8,5.3l1.4,1.3v0.8h1v-0.7l-1.4-1.3L124,72.2z
							 M66.9,77.5c-0.3-0.6-0.3-1.3,0-2.1h-1c-0.3,0.8-0.3,1.5,0,2.1c0.2,0.5,0.7,0.9,1.4,1.1l0.4,0.1v0.9h1v-0.8l-0.3-0.1
							C67.7,78.4,67.2,78,66.9,77.5z M20.2,65c-0.1,0-0.3,0-0.4,0h-0.6v5.5c0.4-0.1,0.7-0.2,1-0.5V65z M41.2,74.5
							c0,0.1-0.1,0.2-0.1,0.2l-0.7,4.9h1l0.8-5.4h-0.9L41.2,74.5z M20.2,76.5v-4c-0.3-0.2-0.6-0.3-1-0.4v4.4c0,1.2,0.2,1.5,0.2,1.5
							c0.1,0.1,0.5,0.1,1.2,0.2c0,0-0.1,0-0.1-0.1C20.4,78.1,20.2,77.8,20.2,76.5z M22.9,67.4c0,0.2,0,0.3-0.1,0.5v6.8
							c0,0.2,0.1,0.3,0.1,0.5l0,0.4h0.9V67h-0.9L22.9,67.4z M27.1,64.5l-0.2-0.2l-0.1-0.8h-0.7v4.4c0,0.1,0.1,0.2,0.1,0.3l0.1,0.3
							h0.8V64.5z M27.4,74.5c0,0.1-0.1,0.2-0.1,0.2l-0.7,4.9h0.4v-0.8l0.8-0.8l0.4-2.8l0-1.1h-0.7L27.4,74.5z M34.2,64.2L33,65.4
							v11.1c0,1.2,0.2,1.5,0.2,1.5c0.1,0.1,0.5,0.1,1.2,0.2c0,0-0.1,0-0.1-0.1c0,0-0.2-0.2-0.2-1.6V65.3l1.3-1.2l0.1-0.7h-1
							L34.2,64.2z"/>
					</defs>
					<clipPath id="SVGID_00000182511829922766460620000007654894841836669373_">
						<use xlink:href="#SVGID_1_"  style="overflow:visible;"/>
					</clipPath>
					<g style="clip-path:url(#SVGID_00000182511829922766460620000007654894841836669373_);">
						<g>
							
								<rect x="-22.8" y="69.9" transform="matrix(0.7516 -0.6596 0.6596 0.7516 -45.0667 20.3179)" class="st2" width="54.4" height="0.2"/>
						</g>
						<g>
							
								<rect x="-22" y="69.9" transform="matrix(0.7516 -0.6596 0.6596 0.7516 -44.8731 20.8302)" class="st2" width="54.4" height="0.2"/>
						</g>
						<g>
							
								<rect x="-21.2" y="69.9" transform="matrix(0.7516 -0.6596 0.6596 0.7516 -44.6795 21.3425)" class="st2" width="54.4" height="0.2"/>
						</g>
						<g>
							
								<rect x="-20.4" y="69.9" transform="matrix(0.7516 -0.6596 0.6596 0.7516 -44.4858 21.8548)" class="st2" width="54.4" height="0.2"/>
						</g>
						<g>
							
								<rect x="-19.7" y="69.9" transform="matrix(0.7516 -0.6596 0.6596 0.7516 -44.2922 22.3672)" class="st2" width="54.4" height="0.2"/>
						</g>
						<g>
							
								<rect x="-18.9" y="69.9" transform="matrix(0.7516 -0.6596 0.6596 0.7516 -44.0985 22.8795)" class="st2" width="54.4" height="0.2"/>
						</g>
						<g>
							
								<rect x="-18.1" y="69.9" transform="matrix(0.7516 -0.6596 0.6596 0.7516 -43.9049 23.3918)" class="st2" width="54.4" height="0.2"/>
						</g>
						<g>
							
								<rect x="-17.3" y="69.9" transform="matrix(0.7516 -0.6596 0.6596 0.7516 -43.7112 23.9041)" class="st2" width="54.4" height="0.2"/>
						</g>
						<g>
							
								<rect x="-16.6" y="69.9" transform="matrix(0.7516 -0.6596 0.6596 0.7516 -43.5176 24.4164)" class="st2" width="54.4" height="0.2"/>
						</g>
						<g>
							
								<rect x="-15.8" y="69.9" transform="matrix(0.7516 -0.6596 0.6596 0.7516 -43.324 24.9287)" class="st2" width="54.4" height="0.2"/>
						</g>
						<g>
							
								<rect x="-15" y="69.9" transform="matrix(0.7516 -0.6596 0.6596 0.7516 -43.1303 25.4411)" class="st2" width="54.4" height="0.2"/>
						</g>
						<g>
							
								<rect x="-14.2" y="69.9" transform="matrix(0.7516 -0.6596 0.6596 0.7516 -42.9366 25.9534)" class="st2" width="54.4" height="0.2"/>
						</g>
						<g>
							
								<rect x="-13.5" y="69.9" transform="matrix(0.7516 -0.6596 0.6596 0.7516 -42.743 26.4658)" class="st2" width="54.4" height="0.2"/>
						</g>
						<g>
							
								<rect x="-12.7" y="69.9" transform="matrix(0.7516 -0.6596 0.6596 0.7516 -42.5494 26.978)" class="st2" width="54.4" height="0.2"/>
						</g>
						<g>
							
								<rect x="-11.9" y="69.9" transform="matrix(0.7516 -0.6596 0.6596 0.7516 -42.3557 27.4903)" class="st2" width="54.4" height="0.2"/>
						</g>
						<g>
							
								<rect x="-11.1" y="69.9" transform="matrix(0.7516 -0.6596 0.6596 0.7516 -42.1621 28.0026)" class="st2" width="54.4" height="0.2"/>
						</g>
						<g>
							
								<rect x="-10.3" y="69.9" transform="matrix(0.7516 -0.6596 0.6596 0.7516 -41.9684 28.515)" class="st2" width="54.4" height="0.2"/>
						</g>
						<g>
							
								<rect x="-9.6" y="69.9" transform="matrix(0.7516 -0.6596 0.6596 0.7516 -41.7748 29.0273)" class="st2" width="54.4" height="0.2"/>
						</g>
						<g>
							
								<rect x="-8.8" y="69.9" transform="matrix(0.7516 -0.6596 0.6596 0.7516 -41.5812 29.5396)" class="st2" width="54.4" height="0.2"/>
						</g>
						<g>
							
								<rect x="-8" y="69.9" transform="matrix(0.7516 -0.6596 0.6596 0.7516 -41.3875 30.0519)" class="st2" width="54.4" height="0.2"/>
						</g>
						<g>
							
								<rect x="-7.2" y="69.9" transform="matrix(0.7516 -0.6596 0.6596 0.7516 -41.1939 30.5642)" class="st2" width="54.4" height="0.2"/>
						</g>
						<g>
							
								<rect x="-6.5" y="69.9" transform="matrix(0.7516 -0.6596 0.6596 0.7516 -41.0002 31.0765)" class="st2" width="54.4" height="0.2"/>
						</g>
						<g>
							
								<rect x="-5.7" y="69.9" transform="matrix(0.7516 -0.6596 0.6596 0.7516 -40.8067 31.5889)" class="st2" width="54.4" height="0.2"/>
						</g>
						<g>
							
								<rect x="-4.9" y="69.9" transform="matrix(0.7516 -0.6596 0.6596 0.7516 -40.6129 32.1012)" class="st2" width="54.4" height="0.2"/>
						</g>
						<g>
							
								<rect x="-4.1" y="69.9" transform="matrix(0.7516 -0.6596 0.6596 0.7516 -40.4194 32.6135)" class="st2" width="54.4" height="0.2"/>
						</g>
						<g>
							
								<rect x="-3.4" y="69.9" transform="matrix(0.7516 -0.6596 0.6596 0.7516 -40.2257 33.1259)" class="st2" width="54.4" height="0.2"/>
						</g>
						<g>
							
								<rect x="-2.6" y="69.9" transform="matrix(0.7516 -0.6596 0.6596 0.7516 -40.0321 33.6381)" class="st2" width="54.4" height="0.2"/>
						</g>
						<g>
							
								<rect x="-1.8" y="69.9" transform="matrix(0.7516 -0.6596 0.6596 0.7516 -39.8384 34.1505)" class="st2" width="54.4" height="0.2"/>
						</g>
						<g>
							
								<rect x="-1" y="69.9" transform="matrix(0.7516 -0.6596 0.6596 0.7516 -39.6448 34.6628)" class="st2" width="54.4" height="0.2"/>
						</g>
						<g>
							
								<rect x="-0.2" y="69.8" transform="matrix(0.7516 -0.6596 0.6596 0.7516 -39.4511 35.1752)" class="st2" width="54.4" height="0.2"/>
						</g>
						<g>
							
								<rect x="0.5" y="69.8" transform="matrix(0.7516 -0.6596 0.6596 0.7516 -39.2575 35.6874)" class="st2" width="54.4" height="0.2"/>
						</g>
						<g>
							
								<rect x="1.3" y="69.8" transform="matrix(0.7516 -0.6596 0.6596 0.7516 -39.0639 36.1997)" class="st2" width="54.4" height="0.2"/>
						</g>
						<g>
							
								<rect x="2.1" y="69.8" transform="matrix(0.7516 -0.6596 0.6596 0.7516 -38.8702 36.712)" class="st2" width="54.4" height="0.2"/>
						</g>
						<g>
							
								<rect x="2.9" y="69.8" transform="matrix(0.7516 -0.6596 0.6596 0.7516 -38.6766 37.2244)" class="st2" width="54.4" height="0.2"/>
						</g>
						<g>
							
								<rect x="3.6" y="69.8" transform="matrix(0.7516 -0.6596 0.6596 0.7516 -38.4829 37.7367)" class="st2" width="54.4" height="0.2"/>
						</g>
						<g>
							
								<rect x="4.4" y="69.8" transform="matrix(0.7516 -0.6596 0.6596 0.7516 -38.2893 38.2491)" class="st2" width="54.4" height="0.2"/>
						</g>
						<g>
							
								<rect x="5.2" y="69.8" transform="matrix(0.7516 -0.6596 0.6596 0.7516 -38.0956 38.7614)" class="st2" width="54.4" height="0.2"/>
						</g>
						<g>
							
								<rect x="6" y="69.8" transform="matrix(0.7516 -0.6596 0.6596 0.7516 -37.902 39.2736)" class="st2" width="54.4" height="0.2"/>
						</g>
						<g>
							
								<rect x="6.7" y="69.8" transform="matrix(0.7516 -0.6596 0.6596 0.7516 -37.7084 39.786)" class="st2" width="54.4" height="0.2"/>
						</g>
						<g>
							
								<rect x="7.5" y="69.8" transform="matrix(0.7516 -0.6596 0.6596 0.7516 -37.5147 40.2983)" class="st2" width="54.4" height="0.2"/>
						</g>
						<g>
							
								<rect x="8.3" y="69.8" transform="matrix(0.7516 -0.6596 0.6596 0.7516 -37.321 40.8107)" class="st2" width="54.4" height="0.2"/>
						</g>
						<g>
							
								<rect x="9.1" y="69.8" transform="matrix(0.7516 -0.6596 0.6596 0.7516 -37.1274 41.323)" class="st2" width="54.4" height="0.2"/>
						</g>
						<g>
							
								<rect x="9.9" y="69.8" transform="matrix(0.7516 -0.6596 0.6596 0.7516 -36.9338 41.8353)" class="st2" width="54.4" height="0.2"/>
						</g>
						<g>
							
								<rect x="10.6" y="69.8" transform="matrix(0.7516 -0.6596 0.6596 0.7516 -36.7401 42.3475)" class="st2" width="54.4" height="0.2"/>
						</g>
						<g>
							
								<rect x="11.4" y="69.8" transform="matrix(0.7516 -0.6596 0.6596 0.7516 -36.5465 42.8599)" class="st2" width="54.4" height="0.2"/>
						</g>
						<g>
							
								<rect x="12.2" y="69.8" transform="matrix(0.7516 -0.6596 0.6596 0.7516 -36.3528 43.3722)" class="st2" width="54.4" height="0.2"/>
						</g>
						<g>
							
								<rect x="13" y="69.8" transform="matrix(0.7516 -0.6596 0.6596 0.7516 -36.1592 43.8846)" class="st2" width="54.4" height="0.2"/>
						</g>
						<g>
							
								<rect x="13.7" y="69.8" transform="matrix(0.7516 -0.6596 0.6596 0.7516 -35.9655 44.3969)" class="st2" width="54.4" height="0.2"/>
						</g>
						<g>
							
								<rect x="14.5" y="69.8" transform="matrix(0.7516 -0.6596 0.6596 0.7516 -35.7719 44.9092)" class="st2" width="54.4" height="0.2"/>
						</g>
						<g>
							
								<rect x="15.3" y="69.8" transform="matrix(0.7516 -0.6596 0.6596 0.7516 -35.5784 45.4215)" class="st2" width="54.4" height="0.2"/>
						</g>
						<g>
							
								<rect x="16.1" y="69.8" transform="matrix(0.7516 -0.6596 0.6596 0.7516 -35.3846 45.9338)" class="st2" width="54.4" height="0.2"/>
						</g>
						<g>
							
								<rect x="16.9" y="69.8" transform="matrix(0.7516 -0.6596 0.6596 0.7516 -35.1911 46.4462)" class="st2" width="54.4" height="0.2"/>
						</g>
						<g>
							
								<rect x="17.6" y="69.8" transform="matrix(0.7516 -0.6596 0.6596 0.7516 -34.9974 46.9585)" class="st2" width="54.4" height="0.2"/>
						</g>
						<g>
							
								<rect x="18.4" y="69.8" transform="matrix(0.7516 -0.6596 0.6596 0.7516 -34.8037 47.4709)" class="st2" width="54.4" height="0.2"/>
						</g>
						<g>
							
								<rect x="19.2" y="69.8" transform="matrix(0.7516 -0.6596 0.6596 0.7516 -34.6101 47.9831)" class="st2" width="54.4" height="0.2"/>
						</g>
						<g>
							
								<rect x="20" y="69.8" transform="matrix(0.7516 -0.6596 0.6596 0.7516 -34.4165 48.4954)" class="st2" width="54.4" height="0.2"/>
						</g>
						<g>
							
								<rect x="20.7" y="69.8" transform="matrix(0.7516 -0.6596 0.6596 0.7516 -34.2228 49.0077)" class="st2" width="54.4" height="0.2"/>
						</g>
						<g>
							
								<rect x="21.5" y="69.8" transform="matrix(0.7516 -0.6596 0.6596 0.7516 -34.0292 49.5201)" class="st2" width="54.4" height="0.2"/>
						</g>
						<g>
							
								<rect x="22.3" y="69.8" transform="matrix(0.7516 -0.6596 0.6596 0.7516 -33.8355 50.0324)" class="st2" width="54.4" height="0.2"/>
						</g>
						<g>
							
								<rect x="23.1" y="69.8" transform="matrix(0.7516 -0.6596 0.6596 0.7516 -33.6419 50.5448)" class="st2" width="54.4" height="0.2"/>
						</g>
						<g>
							
								<rect x="23.8" y="69.8" transform="matrix(0.7516 -0.6596 0.6596 0.7516 -33.4483 51.057)" class="st2" width="54.4" height="0.2"/>
						</g>
						<g>
							
								<rect x="24.6" y="69.8" transform="matrix(0.7516 -0.6596 0.6596 0.7516 -33.2546 51.5693)" class="st2" width="54.4" height="0.2"/>
						</g>
						<g>
							
								<rect x="25.4" y="69.8" transform="matrix(0.7516 -0.6596 0.6596 0.7516 -33.061 52.0816)" class="st2" width="54.4" height="0.2"/>
						</g>
						<g>
							
								<rect x="26.2" y="69.8" transform="matrix(0.7516 -0.6596 0.6596 0.7516 -32.8673 52.594)" class="st2" width="54.4" height="0.2"/>
						</g>
						<g>
							
								<rect x="27" y="69.8" transform="matrix(0.7516 -0.6596 0.6596 0.7516 -32.6737 53.1063)" class="st2" width="54.4" height="0.2"/>
						</g>
						<g>
							
								<rect x="27.7" y="69.8" transform="matrix(0.7516 -0.6596 0.6596 0.7516 -32.48 53.6187)" class="st2" width="54.4" height="0.2"/>
						</g>
						<g>
							
								<rect x="28.5" y="69.8" transform="matrix(0.7516 -0.6596 0.6596 0.7516 -32.2864 54.1309)" class="st2" width="54.4" height="0.2"/>
						</g>
						<g>
							
								<rect x="29.3" y="69.8" transform="matrix(0.7516 -0.6596 0.6596 0.7516 -32.0928 54.6432)" class="st2" width="54.4" height="0.2"/>
						</g>
						<g>
							
								<rect x="30.1" y="69.8" transform="matrix(0.7516 -0.6596 0.6596 0.7516 -31.8991 55.1556)" class="st2" width="54.4" height="0.2"/>
						</g>
						<g>
							
								<rect x="30.8" y="69.8" transform="matrix(0.7516 -0.6596 0.6596 0.7516 -31.7055 55.6679)" class="st2" width="54.4" height="0.2"/>
						</g>
						<g>
							
								<rect x="31.6" y="69.8" transform="matrix(0.7516 -0.6596 0.6596 0.7516 -31.5118 56.1802)" class="st2" width="54.4" height="0.2"/>
						</g>
						<g>
							
								<rect x="32.4" y="69.8" transform="matrix(0.7516 -0.6596 0.6596 0.7516 -31.3181 56.6926)" class="st2" width="54.4" height="0.2"/>
						</g>
						<g>
							
								<rect x="33.2" y="69.8" transform="matrix(0.7516 -0.6596 0.6596 0.7516 -31.1245 57.2049)" class="st2" width="54.4" height="0.2"/>
						</g>
						<g>
							
								<rect x="33.9" y="69.8" transform="matrix(0.7516 -0.6596 0.6596 0.7516 -30.9309 57.7171)" class="st2" width="54.4" height="0.2"/>
						</g>
						<g>
							
								<rect x="34.7" y="69.8" transform="matrix(0.7516 -0.6596 0.6596 0.7516 -30.7372 58.2295)" class="st2" width="54.4" height="0.2"/>
						</g>
						<g>
							
								<rect x="35.5" y="69.8" transform="matrix(0.7516 -0.6596 0.6596 0.7516 -30.5436 58.7418)" class="st2" width="54.4" height="0.2"/>
						</g>
						<g>
							
								<rect x="36.3" y="69.8" transform="matrix(0.7516 -0.6596 0.6596 0.7516 -30.35 59.2542)" class="st2" width="54.4" height="0.2"/>
						</g>
						<g>
							
								<rect x="37.1" y="69.8" transform="matrix(0.7516 -0.6596 0.6596 0.7516 -30.1563 59.7665)" class="st2" width="54.4" height="0.2"/>
						</g>
						<g>
							
								<rect x="37.8" y="69.8" transform="matrix(0.7516 -0.6596 0.6596 0.7516 -29.9627 60.2788)" class="st2" width="54.4" height="0.2"/>
						</g>
						<g>
							
								<rect x="38.6" y="69.8" transform="matrix(0.7516 -0.6596 0.6596 0.7516 -29.7691 60.7911)" class="st2" width="54.4" height="0.2"/>
						</g>
						<g>
							
								<rect x="39.4" y="69.8" transform="matrix(0.7516 -0.6596 0.6596 0.7516 -29.5755 61.3034)" class="st2" width="54.4" height="0.2"/>
						</g>
						<g>
							
								<rect x="40.2" y="69.8" transform="matrix(0.7516 -0.6596 0.6596 0.7516 -29.3818 61.8158)" class="st2" width="54.4" height="0.2"/>
						</g>
						<g>
							
								<rect x="40.9" y="69.8" transform="matrix(0.7516 -0.6596 0.6596 0.7516 -29.1881 62.3281)" class="st2" width="54.4" height="0.2"/>
						</g>
						<g>
							
								<rect x="41.7" y="69.8" transform="matrix(0.7516 -0.6596 0.6596 0.7516 -28.9945 62.8405)" class="st2" width="54.4" height="0.2"/>
						</g>
						<g>
							
								<rect x="42.5" y="69.8" transform="matrix(0.7516 -0.6596 0.6596 0.7516 -28.8009 63.3527)" class="st2" width="54.4" height="0.2"/>
						</g>
						<g>
							
								<rect x="43.3" y="69.8" transform="matrix(0.7516 -0.6596 0.6596 0.7516 -28.6072 63.865)" class="st2" width="54.4" height="0.2"/>
						</g>
						<g>
							
								<rect x="44" y="69.8" transform="matrix(0.7516 -0.6596 0.6596 0.7516 -28.4136 64.3773)" class="st2" width="54.4" height="0.2"/>
						</g>
						<g>
							
								<rect x="44.8" y="69.8" transform="matrix(0.7516 -0.6596 0.6596 0.7516 -28.2199 64.8897)" class="st2" width="54.4" height="0.2"/>
						</g>
						<g>
							
								<rect x="45.6" y="69.8" transform="matrix(0.7516 -0.6596 0.6596 0.7516 -28.0263 65.402)" class="st2" width="54.4" height="0.2"/>
						</g>
						<g>
							
								<rect x="46.4" y="69.8" transform="matrix(0.7516 -0.6596 0.6596 0.7516 -27.8326 65.9144)" class="st2" width="54.4" height="0.2"/>
						</g>
						<g>
							
								<rect x="47.2" y="69.8" transform="matrix(0.7516 -0.6596 0.6596 0.7516 -27.639 66.4266)" class="st2" width="54.4" height="0.2"/>
						</g>
						<g>
							
								<rect x="47.9" y="69.8" transform="matrix(0.7516 -0.6596 0.6596 0.7516 -27.4454 66.9389)" class="st2" width="54.4" height="0.2"/>
						</g>
						<g>
							
								<rect x="48.7" y="69.8" transform="matrix(0.7516 -0.6596 0.6596 0.7516 -27.2517 67.4512)" class="st2" width="54.4" height="0.2"/>
						</g>
						<g>
							
								<rect x="49.5" y="69.8" transform="matrix(0.7516 -0.6596 0.6596 0.7516 -27.0581 67.9636)" class="st2" width="54.4" height="0.2"/>
						</g>
						<g>
							
								<rect x="50.3" y="69.8" transform="matrix(0.7516 -0.6596 0.6596 0.7516 -26.8644 68.4759)" class="st2" width="54.4" height="0.2"/>
						</g>
						<g>
							
								<rect x="51" y="69.8" transform="matrix(0.7516 -0.6596 0.6596 0.7516 -26.6708 68.9883)" class="st2" width="54.4" height="0.2"/>
						</g>
						<g>
							
								<rect x="51.8" y="69.8" transform="matrix(0.7516 -0.6596 0.6596 0.7516 -26.4771 69.5005)" class="st2" width="54.4" height="0.2"/>
						</g>
						<g>
							
								<rect x="52.6" y="69.8" transform="matrix(0.7516 -0.6596 0.6596 0.7516 -26.2835 70.0128)" class="st2" width="54.4" height="0.2"/>
						</g>
						<g>
							
								<rect x="53.4" y="69.8" transform="matrix(0.7516 -0.6596 0.6596 0.7516 -26.0899 70.5251)" class="st2" width="54.4" height="0.2"/>
						</g>
						<g>
							
								<rect x="54.1" y="69.8" transform="matrix(0.7516 -0.6596 0.6596 0.7516 -25.8962 71.0375)" class="st2" width="54.4" height="0.2"/>
						</g>
						<g>
							
								<rect x="54.9" y="69.8" transform="matrix(0.7516 -0.6596 0.6596 0.7516 -25.7025 71.5498)" class="st2" width="54.4" height="0.2"/>
						</g>
						<g>
							
								<rect x="55.7" y="69.8" transform="matrix(0.7516 -0.6596 0.6596 0.7516 -25.5089 72.0622)" class="st2" width="54.4" height="0.2"/>
						</g>
						<g>
							
								<rect x="56.5" y="69.8" transform="matrix(0.7516 -0.6596 0.6596 0.7516 -25.3153 72.5744)" class="st2" width="54.4" height="0.2"/>
						</g>
						<g>
							
								<rect x="57.3" y="69.8" transform="matrix(0.7516 -0.6596 0.6596 0.7516 -25.1217 73.0867)" class="st2" width="54.4" height="0.2"/>
						</g>
						<g>
							
								<rect x="58" y="69.8" transform="matrix(0.7516 -0.6596 0.6596 0.7516 -24.928 73.5991)" class="st2" width="54.4" height="0.2"/>
						</g>
						<g>
							
								<rect x="58.8" y="69.8" transform="matrix(0.7516 -0.6596 0.6596 0.7516 -24.7344 74.1114)" class="st2" width="54.4" height="0.2"/>
						</g>
						<g>
							
								<rect x="59.6" y="69.8" transform="matrix(0.7516 -0.6596 0.6596 0.7516 -24.5408 74.6238)" class="st2" width="54.4" height="0.2"/>
						</g>
						<g>
							
								<rect x="60.4" y="69.8" transform="matrix(0.7516 -0.6596 0.6596 0.7516 -24.3471 75.1361)" class="st2" width="54.4" height="0.2"/>
						</g>
						<g>
							
								<rect x="61.1" y="69.8" transform="matrix(0.7516 -0.6596 0.6596 0.7516 -24.1535 75.6484)" class="st2" width="54.4" height="0.2"/>
						</g>
						<g>
							
								<rect x="61.9" y="69.8" transform="matrix(0.7516 -0.6596 0.6596 0.7516 -23.9599 76.1607)" class="st2" width="54.4" height="0.2"/>
						</g>
						<g>
							
								<rect x="62.7" y="69.8" transform="matrix(0.7516 -0.6596 0.6596 0.7516 -23.7662 76.673)" class="st2" width="54.4" height="0.2"/>
						</g>
						<g>
							
								<rect x="63.5" y="69.8" transform="matrix(0.7516 -0.6596 0.6596 0.7516 -23.5725 77.1853)" class="st2" width="54.4" height="0.2"/>
						</g>
						<g>
							
								<rect x="64.2" y="69.8" transform="matrix(0.7516 -0.6596 0.6596 0.7516 -23.3789 77.6977)" class="st2" width="54.4" height="0.2"/>
						</g>
						<g>
							
								<rect x="65" y="69.8" transform="matrix(0.7516 -0.6596 0.6596 0.7516 -23.1852 78.21)" class="st2" width="54.4" height="0.2"/>
						</g>
						<g>
							
								<rect x="65.8" y="69.8" transform="matrix(0.7516 -0.6596 0.6596 0.7516 -22.9916 78.7223)" class="st2" width="54.4" height="0.2"/>
						</g>
						<g>
							
								<rect x="66.6" y="69.8" transform="matrix(0.7516 -0.6596 0.6596 0.7516 -22.798 79.2346)" class="st2" width="54.4" height="0.2"/>
						</g>
						<g>
							
								<rect x="67.4" y="69.8" transform="matrix(0.7516 -0.6596 0.6596 0.7516 -22.6043 79.7469)" class="st2" width="54.4" height="0.2"/>
						</g>
						<g>
							
								<rect x="68.1" y="69.8" transform="matrix(0.7516 -0.6596 0.6596 0.7516 -22.4107 80.2593)" class="st2" width="54.4" height="0.2"/>
						</g>
						<g>
							
								<rect x="68.9" y="69.8" transform="matrix(0.7516 -0.6596 0.6596 0.7516 -22.217 80.7716)" class="st2" width="54.4" height="0.2"/>
						</g>
						<g>
							
								<rect x="69.7" y="69.8" transform="matrix(0.7516 -0.6596 0.6596 0.7516 -22.0234 81.284)" class="st2" width="54.4" height="0.2"/>
						</g>
						<g>
							
								<rect x="70.5" y="69.8" transform="matrix(0.7516 -0.6596 0.6596 0.7516 -21.8297 81.7962)" class="st2" width="54.4" height="0.2"/>
						</g>
						<g>
							
								<rect x="71.2" y="69.8" transform="matrix(0.7516 -0.6596 0.6596 0.7516 -21.6361 82.3085)" class="st2" width="54.4" height="0.2"/>
						</g>
						<g>
							
								<rect x="72" y="69.8" transform="matrix(0.7516 -0.6596 0.6596 0.7516 -21.4425 82.8208)" class="st2" width="54.4" height="0.2"/>
						</g>
						<g>
							
								<rect x="72.8" y="69.8" transform="matrix(0.7516 -0.6596 0.6596 0.7516 -21.2488 83.3332)" class="st2" width="54.4" height="0.2"/>
						</g>
						<g>
							
								<rect x="73.6" y="69.8" transform="matrix(0.7516 -0.6596 0.6596 0.7516 -21.0552 83.8455)" class="st2" width="54.4" height="0.2"/>
						</g>
						<g>
							
								<rect x="74.3" y="69.8" transform="matrix(0.7516 -0.6596 0.6596 0.7516 -20.8615 84.3579)" class="st2" width="54.4" height="0.2"/>
						</g>
						<g>
							
								<rect x="75.1" y="69.8" transform="matrix(0.7516 -0.6596 0.6596 0.7516 -20.6679 84.8701)" class="st2" width="54.4" height="0.2"/>
						</g>
						<g>
							
								<rect x="75.9" y="69.8" transform="matrix(0.7516 -0.6596 0.6596 0.7516 -20.4743 85.3824)" class="st2" width="54.4" height="0.2"/>
						</g>
						<g>
							
								<rect x="76.7" y="69.8" transform="matrix(0.7516 -0.6596 0.6596 0.7516 -20.2806 85.8947)" class="st2" width="54.4" height="0.2"/>
						</g>
						<g>
							
								<rect x="77.5" y="69.8" transform="matrix(0.7516 -0.6596 0.6596 0.7516 -20.0869 86.4071)" class="st2" width="54.4" height="0.2"/>
						</g>
						<g>
							
								<rect x="78.2" y="69.8" transform="matrix(0.7516 -0.6596 0.6596 0.7516 -19.8934 86.9195)" class="st2" width="54.4" height="0.2"/>
						</g>
						<g>
							
								<rect x="79" y="69.8" transform="matrix(0.7516 -0.6596 0.6596 0.7516 -19.6996 87.4318)" class="st2" width="54.4" height="0.2"/>
						</g>
						<g>
							
								<rect x="79.8" y="69.8" transform="matrix(0.7516 -0.6596 0.6596 0.7516 -19.5061 87.9441)" class="st2" width="54.4" height="0.2"/>
						</g>
						<g>
							
								<rect x="80.6" y="69.8" transform="matrix(0.7516 -0.6596 0.6596 0.7516 -19.3125 88.4563)" class="st2" width="54.4" height="0.2"/>
						</g>
						<g>
							
								<rect x="81.3" y="69.8" transform="matrix(0.7516 -0.6596 0.6596 0.7516 -19.1188 88.9687)" class="st2" width="54.4" height="0.2"/>
						</g>
						<g>
							
								<rect x="82.1" y="69.8" transform="matrix(0.7516 -0.6596 0.6596 0.7516 -18.9252 89.481)" class="st2" width="54.4" height="0.2"/>
						</g>
						<g>
							
								<rect x="82.9" y="69.7" transform="matrix(0.7516 -0.6596 0.6596 0.7516 -18.7315 89.9934)" class="st2" width="54.4" height="0.2"/>
						</g>
						<g>
							
								<rect x="83.7" y="69.7" transform="matrix(0.7516 -0.6596 0.6596 0.7516 -18.5378 90.5057)" class="st2" width="54.4" height="0.2"/>
						</g>
						<g>
							
								<rect x="84.5" y="69.7" transform="matrix(0.7516 -0.6596 0.6596 0.7516 -18.3442 91.018)" class="st2" width="54.4" height="0.2"/>
						</g>
						<g>
							
								<rect x="85.2" y="69.7" transform="matrix(0.7516 -0.6596 0.6596 0.7516 -18.1506 91.5302)" class="st2" width="54.4" height="0.2"/>
						</g>
						<g>
							
								<rect x="86" y="69.7" transform="matrix(0.7516 -0.6596 0.6596 0.7516 -17.9569 92.0426)" class="st2" width="54.4" height="0.2"/>
						</g>
						<g>
							
								<rect x="86.8" y="69.7" transform="matrix(0.7516 -0.6596 0.6596 0.7516 -17.7633 92.5549)" class="st2" width="54.4" height="0.2"/>
						</g>
						<g>
							
								<rect x="87.6" y="69.7" transform="matrix(0.7516 -0.6596 0.6596 0.7516 -17.5696 93.0673)" class="st2" width="54.4" height="0.2"/>
						</g>
						<g>
							
								<rect x="88.3" y="69.7" transform="matrix(0.7516 -0.6596 0.6596 0.7516 -17.376 93.5796)" class="st2" width="54.4" height="0.2"/>
						</g>
						<g>
							
								<rect x="89.1" y="69.7" transform="matrix(0.7516 -0.6596 0.6596 0.7516 -17.1824 94.0919)" class="st2" width="54.4" height="0.2"/>
						</g>
						<g>
							
								<rect x="89.9" y="69.7" transform="matrix(0.7516 -0.6596 0.6596 0.7516 -16.9887 94.6042)" class="st2" width="54.4" height="0.2"/>
						</g>
						<g>
							
								<rect x="90.7" y="69.7" transform="matrix(0.7516 -0.6596 0.6596 0.7516 -16.7951 95.1165)" class="st2" width="54.4" height="0.2"/>
						</g>
						<g>
							
								<rect x="91.4" y="69.7" transform="matrix(0.7516 -0.6596 0.6596 0.7516 -16.6014 95.6289)" class="st2" width="54.4" height="0.2"/>
						</g>
						<g>
							
								<rect x="92.2" y="69.7" transform="matrix(0.7516 -0.6596 0.6596 0.7516 -16.4078 96.1412)" class="st2" width="54.4" height="0.2"/>
						</g>
						<g>
							
								<rect x="93" y="69.7" transform="matrix(0.7516 -0.6596 0.6596 0.7516 -16.2141 96.6535)" class="st2" width="54.4" height="0.2"/>
						</g>
						<g>
							
								<rect x="93.8" y="69.7" transform="matrix(0.7516 -0.6596 0.6596 0.7516 -16.0205 97.1658)" class="st2" width="54.4" height="0.2"/>
						</g>
						<g>
							
								<rect x="94.6" y="69.7" transform="matrix(0.7516 -0.6596 0.6596 0.7516 -15.8269 97.6781)" class="st2" width="54.4" height="0.2"/>
						</g>
						<g>
							
								<rect x="95.3" y="69.7" transform="matrix(0.7516 -0.6596 0.6596 0.7516 -15.6332 98.1904)" class="st2" width="54.4" height="0.2"/>
						</g>
						<g>
							
								<rect x="96.1" y="69.7" transform="matrix(0.7516 -0.6596 0.6596 0.7516 -15.4396 98.7028)" class="st2" width="54.4" height="0.2"/>
						</g>
						<g>
							
								<rect x="96.9" y="69.7" transform="matrix(0.7516 -0.6596 0.6596 0.7516 -15.2459 99.2151)" class="st2" width="54.4" height="0.2"/>
						</g>
						<g>
							
								<rect x="97.7" y="69.7" transform="matrix(0.7516 -0.6596 0.6596 0.7516 -15.0522 99.7275)" class="st2" width="54.4" height="0.2"/>
						</g>
						<g>
							
								<rect x="98.4" y="69.7" transform="matrix(0.7516 -0.6596 0.6596 0.7516 -14.8586 100.2397)" class="st2" width="54.4" height="0.2"/>
						</g>
						<g>
							
								<rect x="99.2" y="69.7" transform="matrix(0.7516 -0.6596 0.6596 0.7516 -14.6651 100.752)" class="st2" width="54.4" height="0.2"/>
						</g>
						<g>
							
								<rect x="100" y="69.7" transform="matrix(0.7516 -0.6596 0.6596 0.7516 -14.4713 101.2643)" class="st2" width="54.4" height="0.2"/>
						</g>
						<g>
							
								<rect x="100.8" y="69.7" transform="matrix(0.7516 -0.6596 0.6596 0.7516 -14.2778 101.7767)" class="st2" width="54.4" height="0.2"/>
						</g>
						<g>
							
								<rect x="101.5" y="69.7" transform="matrix(0.7516 -0.6596 0.6596 0.7516 -14.0841 102.2891)" class="st2" width="54.4" height="0.2"/>
						</g>
						<g>
							
								<rect x="102.3" y="69.7" transform="matrix(0.7516 -0.6596 0.6596 0.7516 -13.8905 102.8014)" class="st2" width="54.4" height="0.2"/>
						</g>
						<g>
							
								<rect x="103.1" y="69.7" transform="matrix(0.7516 -0.6596 0.6596 0.7516 -13.6968 103.3137)" class="st2" width="54.4" height="0.2"/>
						</g>
						<g>
							
								<rect x="103.9" y="69.7" transform="matrix(0.7516 -0.6596 0.6596 0.7516 -13.5032 103.8259)" class="st2" width="54.4" height="0.2"/>
						</g>
						<g>
							
								<rect x="104.7" y="69.7" transform="matrix(0.7516 -0.6596 0.6596 0.7516 -13.3096 104.3383)" class="st2" width="54.4" height="0.2"/>
						</g>
						<g>
							
								<rect x="105.4" y="69.7" transform="matrix(0.7516 -0.6596 0.6596 0.7516 -13.1159 104.8506)" class="st2" width="54.4" height="0.2"/>
						</g>
						<g>
							
								<rect x="106.2" y="69.7" transform="matrix(0.7516 -0.6596 0.6596 0.7516 -12.9222 105.363)" class="st2" width="54.4" height="0.2"/>
						</g>
						<g>
							
								<rect x="107" y="69.7" transform="matrix(0.7516 -0.6596 0.6596 0.7516 -12.7286 105.8753)" class="st2" width="54.4" height="0.2"/>
						</g>
						<g>
							
								<rect x="107.8" y="69.7" transform="matrix(0.7516 -0.6596 0.6596 0.7516 -12.535 106.3876)" class="st2" width="54.4" height="0.2"/>
						</g>
						<g>
							
								<rect x="108.5" y="69.7" transform="matrix(0.7516 -0.6596 0.6596 0.7516 -12.3413 106.8998)" class="st2" width="54.4" height="0.2"/>
						</g>
						<g>
							
								<rect x="109.3" y="69.7" transform="matrix(0.7516 -0.6596 0.6596 0.7516 -12.1477 107.4122)" class="st2" width="54.4" height="0.2"/>
						</g>
						<g>
							
								<rect x="110.1" y="69.7" transform="matrix(0.7516 -0.6596 0.6596 0.7516 -11.954 107.9245)" class="st2" width="54.4" height="0.2"/>
						</g>
						<g>
							
								<rect x="110.9" y="69.7" transform="matrix(0.7516 -0.6596 0.6596 0.7516 -11.7604 108.4369)" class="st2" width="54.4" height="0.2"/>
						</g>
						<g>
							
								<rect x="111.6" y="69.7" transform="matrix(0.7516 -0.6596 0.6596 0.7516 -11.5667 108.9492)" class="st2" width="54.4" height="0.2"/>
						</g>
						<g>
							
								<rect x="112.4" y="69.7" transform="matrix(0.7516 -0.6596 0.6596 0.7516 -11.3731 109.4615)" class="st2" width="54.4" height="0.2"/>
						</g>
						<g>
							
								<rect x="113.2" y="69.7" transform="matrix(0.7516 -0.6596 0.6596 0.7516 -11.1795 109.9737)" class="st2" width="54.4" height="0.2"/>
						</g>
						<g>
							
								<rect x="114" y="69.7" transform="matrix(0.7516 -0.6596 0.6596 0.7516 -10.9858 110.4861)" class="st2" width="54.4" height="0.2"/>
						</g>
						<g>
							
								<rect x="114.8" y="69.7" transform="matrix(0.7516 -0.6596 0.6596 0.7516 -10.7922 110.9984)" class="st2" width="54.4" height="0.2"/>
						</g>
						<g>
							
								<rect x="115.5" y="69.7" transform="matrix(0.7516 -0.6596 0.6596 0.7516 -10.5985 111.5108)" class="st2" width="54.4" height="0.2"/>
						</g>
						<g>
							
								<rect x="116.3" y="69.7" transform="matrix(0.7516 -0.6596 0.6596 0.7516 -10.4049 112.0231)" class="st2" width="54.4" height="0.2"/>
						</g>
						<g>
							
								<rect x="117.1" y="69.7" transform="matrix(0.7516 -0.6596 0.6596 0.7516 -10.2112 112.5354)" class="st2" width="54.4" height="0.2"/>
						</g>
						<g>
							
								<rect x="117.9" y="69.7" transform="matrix(0.7516 -0.6596 0.6596 0.7516 -10.0176 113.0477)" class="st2" width="54.4" height="0.2"/>
						</g>
						<g>
							
								<rect x="118.6" y="69.7" transform="matrix(0.7516 -0.6596 0.6596 0.7516 -9.824 113.56)" class="st2" width="54.4" height="0.2"/>
						</g>
						<g>
							
								<rect x="119.4" y="69.7" transform="matrix(0.7516 -0.6596 0.6596 0.7516 -9.6303 114.0723)" class="st2" width="54.4" height="0.2"/>
						</g>
						<g>
							
								<rect x="120.2" y="69.7" transform="matrix(0.7516 -0.6596 0.6596 0.7516 -9.4367 114.5847)" class="st2" width="54.4" height="0.2"/>
						</g>
						<g>
							
								<rect x="121" y="69.7" transform="matrix(0.7516 -0.6596 0.6596 0.7516 -9.243 115.097)" class="st2" width="54.4" height="0.2"/>
						</g>
						<g>
							
								<rect x="121.7" y="69.7" transform="matrix(0.7516 -0.6596 0.6596 0.7516 -9.0495 115.6093)" class="st2" width="54.4" height="0.2"/>
						</g>
						<g>
							
								<rect x="122.5" y="69.7" transform="matrix(0.7516 -0.6596 0.6596 0.7516 -8.8558 116.1216)" class="st2" width="54.4" height="0.2"/>
						</g>
						<g>
							
								<rect x="123.3" y="69.7" transform="matrix(0.7516 -0.6596 0.6596 0.7516 -8.6622 116.6339)" class="st2" width="54.4" height="0.2"/>
						</g>
						<g>
							
								<rect x="124.1" y="69.7" transform="matrix(0.7516 -0.6596 0.6596 0.7516 -8.4685 117.1463)" class="st2" width="54.4" height="0.2"/>
						</g>
						<g>
							
								<rect x="124.9" y="69.7" transform="matrix(0.7516 -0.6596 0.6596 0.7516 -8.2749 117.6586)" class="st2" width="54.4" height="0.2"/>
						</g>
						<g>
							
								<rect x="125.6" y="69.7" transform="matrix(0.7516 -0.6596 0.6596 0.7516 -8.0812 118.171)" class="st2" width="54.4" height="0.2"/>
						</g>
						<g>
							
								<rect x="126.4" y="69.7" transform="matrix(0.7516 -0.6596 0.6596 0.7516 -7.8876 118.6833)" class="st2" width="54.4" height="0.2"/>
						</g>
						<g>
							
								<rect x="127.2" y="69.7" transform="matrix(0.7516 -0.6596 0.6596 0.7516 -7.694 119.1955)" class="st2" width="54.4" height="0.2"/>
						</g>
						<g>
							
								<rect x="128" y="69.7" transform="matrix(0.7516 -0.6596 0.6596 0.7516 -7.5003 119.7079)" class="st2" width="54.4" height="0.2"/>
						</g>
						<g>
							
								<rect x="128.7" y="69.7" transform="matrix(0.7516 -0.6596 0.6596 0.7516 -7.3066 120.2202)" class="st2" width="54.4" height="0.2"/>
						</g>
						<g>
							
								<rect x="129.5" y="69.7" transform="matrix(0.7516 -0.6596 0.6596 0.7516 -7.113 120.7326)" class="st2" width="54.4" height="0.2"/>
						</g>
						<g>
							
								<rect x="130.3" y="69.7" transform="matrix(0.7516 -0.6596 0.6596 0.7516 -6.9193 121.2449)" class="st2" width="54.4" height="0.2"/>
						</g>
					</g>
				</g>
				<g>
					<g>
						<path class="st3" d="M34.5,78.7c-1.1,0-1.5-0.1-1.7-0.3c-0.2-0.2-0.4-0.8-0.4-1.9V65.2l1.3-1.2l0-0.1h-6.3l0,0.1l1.3,1.2
							l0,12.8l-1.3,1.2v0.1h12.4l0.7-4.6h-0.1C39.2,77.3,36.1,78.7,34.5,78.7z M62.8,68h-7.9v0.1l1.6,1.5V78c-1,0.4-2,0.6-2.9,0.6
							c-4.1,0-6.2-3-6.2-8.9c0-2.6,0.5-4.7,1.4-6.5c1-1.7,2.4-3,4.6-3c3.2,0,3.7,3.6,2.4,4.7c0.4,0.4,1,0.7,1.9,0.7
							c1.6,0,3.1-1.2,3-2.5c0-1.2-1-2.1-2.3-2.8c-1.3-0.6-3.1-1-4.8-1c-2.1,0-4.5,0.5-6.1,1.4c-3.3,1.9-5.2,5.1-5.2,9
							c0,3.8,1.9,6.8,5.2,8.5c1.6,0.9,3.5,1.3,5.7,1.3c2.8,0,5.5-0.5,8-1.7v-8.3l1.6-1.5V68z M142.9,67.3c-1.6-2.6-4.1-3.6-7.1-3.6
							c-1.8,0-3.3,0.4-4.5,1.2c-2.4,1.5-3.6,3.9-3.6,6.7c0,2.1,0.7,3.9,2.1,5.6c1.4,1.7,3.4,2.5,6.1,2.5c2.5,0,4.5-0.8,5.9-2.4
							c1.4-1.6,2.2-3.5,2.2-5.7C144.1,69.9,143.7,68.5,142.9,67.3z M135.9,79c-2.7,0-4.1-2.7-4.1-7.4c0-4.8,1.4-7.4,4.1-7.4
							c2.7,0,4,2.6,4,7.5C140,76.3,138.6,79,135.9,79z M20.7,78.7c-1.1,0-1.5-0.1-1.7-0.3c-0.2-0.2-0.4-0.8-0.4-1.9v-4.9h0.2
							c1.7,0,3.2,1.5,3.4,3.6h0.1v-7.7h-0.1C22.1,69,20.6,71,18.9,71h-0.3v-6.6h1.2c2.9,0,4.6,0.4,5.7,3.6h0.1v-4.2h-12l0,0.1
							l1.3,1.2l0,12.8l-1.3,1.2v0.1H26l0.7-4.6h-0.1C25.4,77.3,22.3,78.7,20.7,78.7z M76.9,64l1.3,1.2l0,12.8l-0.9,0.8l-0.9-0.8
							l-6.3-14.4h0l-5.4,12c-0.6,1.3-1.5,2.5-3,3.5v0.1h5.6v-0.1c-1.9-0.6-2.4-2.4-1.6-4.2l0-0.1H71l1.3,3.1h0L71,79.1v0.1h12.2
							v-0.1l-1.3-1.2l0-12.8l1.3-1.2v-0.1h-6.2V64z M65.8,74.3l2.5-5.6l2.4,5.6H65.8z M122.2,71.9c2.3-0.6,3.4-1.8,3.4-3.9
							c0-4-3.9-4.2-7-4.2h-6.4V64l1.3,1.2v12.8l-1.3,1.2v0.1h6.2v-0.1l-1.3-1.2v-5.7h1l4.9,7h4.5v-0.1l-1.3-1.2L122.2,71.9z
							 M117.9,71.6h-0.6v-7.3h1.2c2.3,0,3.5,1.4,3.5,3.7C121.9,70.8,120.3,71.6,117.9,71.6z M105.5,78.6c-1.1,0-1.5-0.1-1.7-0.3
							c-0.2-0.2-0.4-0.8-0.4-1.9v-4.9h0.2c1.7,0,3.2,1.5,3.4,3.6h0.1v-7.7H107c-0.1,1.6-1.5,3.6-3.3,3.6h-0.3v-6.6h1.2
							c2.9,0,4.6,0.4,5.7,3.6h0.1v-4.2h-12l0,0.1l1.3,1.2l0,12.8l-1.3,1.2v0.1h12.4l0.7-4.6h-0.1C110.3,77.2,107.1,78.6,105.5,78.6z
							 M83.9,68H84c1-3,2.5-3.6,4.9-3.6v13.5l-1.3,1.2v0.1h6.2v-0.1l-1.3-1.2V64.4c2.4,0.1,3.9,0.7,4.9,3.6h0.1v-4.2H83.9V68z"/>
					</g>
				</g>
			</g>
			<path class="st2" d="M71.6,40.5c0,0.1,0,0.2,0,0.3c0,0.6,0,1.2,0,1.8c0,0.7,0,1.5-0.1,2.2c-0.1,0.3,0,0.7,0,1c0,0,0,0,0.1,0
				c0-0.2,0.1-0.4,0.1-0.6c0,0,0.1-0.1,0.1-0.1c0,0,0-0.1,0-0.1c0-0.1,0-0.3,0-0.4c0-0.2,0.1-0.4,0.1-0.6c0-0.2,0.1-0.4,0.1-0.5
				c0,0,0-0.1,0-0.1c0-0.7,0-1.5,0.1-2.2C72.1,40.8,71.9,40.6,71.6,40.5z M75.8,46.1c-0.1-0.1-0.2-0.2-0.3-0.2
				c-0.2,0-0.4-0.1-0.4-0.2c-0.1-0.1-0.1-0.2-0.1-0.4c0-0.3-0.2-0.5-0.4-0.6c-0.4-0.4-0.5-0.8-0.4-1.3c0.1-0.7-0.2-1.2-0.7-1.4
				c0,0,0,0.1,0,0.1c0,0.4,0.1,0.7,0.1,1.1c0,0.2,0,0.5,0.2,0.7c0.1,0.2,0.2,0.4,0.1,0.6c0,0,0,0.2,0.1,0.2c0.2,0.1,0.2,0.2,0.2,0.3
				c0.1,0.3,0.1,0.7,0.2,1c0.2,0.8,0.4,1.6,0.5,2.5c0,0.1,0,0.2,0,0.3c0,0,0.1,0,0.1,0c0.3-0.5,0.7-1,1-1.5
				C76.1,46.8,76.2,46.4,75.8,46.1z M75.5,46.7c-0.1,0.1-0.2,0.3-0.3,0.4l0,0c0-0.2,0-0.5-0.1-0.7c0.1,0,0.2,0,0.2,0
				C75.4,46.5,75.5,46.6,75.5,46.7z M73.2,41.9c0-0.1,0-0.2-0.1-0.2c-0.3-0.2-0.5-0.4-0.8-0.6c0,0.6,0,1.1,0.1,1.6
				c0.1,0.4,0.3,0.8,0.3,1.3c0,0.2,0.1,0.4,0.1,0.7c0.1-0.1,0.1-0.1,0.1-0.2C73.3,43.6,73.2,42.7,73.2,41.9z M71.6,40.5
				c0,0.1,0,0.2,0,0.3c0,0.6,0,1.2,0,1.8c0,0.7,0,1.5-0.1,2.2c-0.1,0.3,0,0.7,0,1c0,0,0,0,0.1,0c0-0.2,0.1-0.4,0.1-0.6
				c0,0,0.1-0.1,0.1-0.1c0,0,0-0.1,0-0.1c0-0.1,0-0.3,0-0.4c0-0.2,0.1-0.4,0.1-0.6c0-0.2,0.1-0.4,0.1-0.5c0,0,0-0.1,0-0.1
				c0-0.7,0-1.5,0.1-2.2C72.1,40.8,71.9,40.6,71.6,40.5z M71.9,47.8c0-0.3-0.1-0.5-0.1-0.8c0-0.2-0.1-0.3-0.3-0.4
				c0,0.8,0.1,1.5,0.1,2.3c0.1-0.3,0.2-0.5,0.2-0.8C71.9,48,71.9,47.9,71.9,47.8z M70.8,39.7C70.7,39.7,70.7,39.7,70.8,39.7
				c0,1-0.1,2,0,2.9v-0.4c0-0.8,0-1.5,0-2.3C70.8,39.9,70.8,39.8,70.8,39.7z M70.6,46.5c-0.1,0.1-0.1,0.1-0.2,0.2
				c-0.2,0.3-0.3,0.7-0.5,1c0,0,0,0.1,0,0.1c0,0.3,0,0.7,0,1c0,0.2,0,0.5,0.2,0.6c0.1,0.1,0.1,0.2,0.1,0.2c0.1,0.2,0.3,0.4,0.4,0.7
				c0,0,0,0,0.1,0C70.8,49.1,70.7,47.9,70.6,46.5z M70.3,45c0-0.5-0.1-1-0.1-1.5c0-1.1,0-2.3,0-3.4v-0.5c0,0-0.1,0-0.1,0
				c0,0.1-0.1,0.3-0.1,0.4c0,0.6-0.1,1.3-0.1,1.9c0,0.5,0,1,0,1.5c0,0.4,0,0.8,0,1.2c0,0.5-0.1,0.9-0.2,1.4c0,0,0.1,0,0.1,0
				c0.2-0.3,0.4-0.5,0.6-0.8C70.3,45.1,70.3,45.1,70.3,45z M69.7,39.2c-0.1,0-0.2-0.1-0.3-0.2c-0.1-0.1-0.1-0.2-0.1-0.2
				c-0.1-0.1-0.1-0.3-0.1-0.5c0-0.3,0-0.5-0.3-0.7c-0.9-0.7-1.7-1.4-2.6-2.1c-0.1-0.1-0.3-0.2-0.4-0.3c0,0.1,0,0.2,0,0.3
				c-0.1,0.3-0.2,0.5-0.1,0.8c0,0.1,0.1,0.3,0.1,0.4c0,0.2,0.1,0.4-0.2,0.4c0,0,0,0.1,0,0.2c0.1,0.2,0.2,0.4,0.2,0.7
				c0,0.1,0,0.2,0.1,0.4c0.1,0.2,0.2,0.5,0.2,0.8c0.1,0.5,0.2,1.1,0.2,1.6c0,0,0,0.1,0,0.1c0.2,0.4,0.1,0.9,0.2,1.3c0,0,0,0,0,0.1
				c-0.1,0.1,0,0.2,0,0.3c0,0.2,0.1,0.3,0.1,0.5c0.1,0.5,0.2,1.1,0.3,1.6c0.1,0.5,0.2,1.1,0.6,1.5c0,0,0,0.1,0,0.1
				c-0.1,0.3,0.1,0.4,0.2,0.6c0.2,0.2,0.4,0.4,0.5,0.5c0.1,0.1,0.1,0.2,0.2,0.3c0.1-0.4,0.2-0.7,0.2-1c-0.1-0.6,0-1.2,0.1-1.9
				c0.1-0.4,0.2-0.9,0.2-1.3c0-0.4,0-0.7,0.1-1.1c0-0.5,0-0.9,0.1-1.4c0-0.6,0-1.3,0.5-1.8C69.9,39.3,69.8,39.3,69.7,39.2z M69,39.5
				c-0.1,0.2-0.2,0.5-0.2,0.7c0,0.9-0.1,1.7-0.1,2.6c0,0.5-0.1,1-0.2,1.5c-0.1,0.7-0.2,1.3-0.3,1.9c-0.1-0.2-0.2-0.5-0.4-0.8
				c-0.2-0.4-0.3-0.9-0.4-1.4c-0.1-0.3-0.1-0.6-0.1-0.9c0,0,0-0.1,0-0.1c-0.2-0.4-0.1-0.9,0-1.3c0-0.2-0.1-0.4-0.1-0.5
				c-0.1-0.4-0.2-0.8-0.3-1.3c-0.1-0.4-0.1-0.7-0.2-1.1c-0.1-0.4-0.2-0.7-0.3-1.1c0-0.1,0-0.2,0-0.4c0.1-0.2,0.1-0.4,0.1-0.5
				c0-0.2-0.1-0.3-0.1-0.5c0.4,0.3,0.8,0.6,1.2,0.9c0.3,0.2,0.6,0.5,0.9,0.7c0.1,0.1,0.2,0.2,0.2,0.4c0,0.4,0.2,0.8,0.4,1.1
				C69,39.4,69,39.5,69,39.5z M99.1,61.4c0.1-0.3,0.1-0.6-0.2-0.8c0,0-0.1-0.1,0-0.2c0-0.4-0.2-0.7-0.3-1.1c0,0,0,0,0,0
				c-0.2-0.1-0.2-0.3-0.2-0.5c0-0.3-0.1-0.5-0.4-0.6c-0.1,0-0.2,0-0.2-0.1c0-0.4-0.1-0.7-0.5-0.8c-0.1,0-0.1-0.1-0.2-0.1
				c-0.2-0.1-0.3-0.3-0.5-0.3c-0.7-0.3-1.4-0.4-1.9-1c0,0-0.1,0-0.1-0.1c-0.1-0.1-0.3-0.2-0.3-0.3c-0.1-0.5-0.7-0.7-0.8-1.1
				c0,0,0,0,0,0c-0.3-0.2-0.5-0.5-0.7-0.8c-0.7-0.9-1.4-1.7-2.2-2.5c-0.3-0.3-0.6-0.7-0.9-1c-0.4-0.4-0.9-0.2-1.1,0.3
				c0,0.2,0,0.4,0,0.6c-0.1,0-0.2-0.1-0.3-0.1c-0.2-0.1-0.5-0.1-0.7-0.3c-0.4-0.2-0.7-0.4-1.2-0.6c-0.2-0.1-0.4-0.3-0.3-0.5
				c0-0.4-0.2-0.8-0.6-0.9c0,0-0.1,0-0.1-0.1c-0.2-0.3-0.6-0.3-0.9-0.5c-0.6-0.2-1.2-0.5-1.6-1.1c0.1-0.1,0.2-0.2,0.3-0.4
				c0.2-0.3,0.5-0.6,0.7-0.9c0.1-0.1,0.2-0.3,0.3-0.4c0.2-0.5,0.1-1,0.1-1.5c0-0.1,0-0.2-0.1-0.2c-0.2-0.4-0.2-0.7-0.1-1.1
				c0.1-0.3,0.3-0.7,0.5-1c0.3-0.5,0.3-1,0.1-1.5c-0.1-0.3-0.3-0.5-0.3-0.9c0-0.1,0-0.1-0.1-0.2c0-0.1-0.1-0.2-0.2-0.3
				c-0.1-0.2-0.1-0.4-0.2-0.6c-0.2-0.4-0.5-0.7-0.8-1.1c0-0.1-0.1-0.1,0-0.2c0.2-0.8,0.6-1.5,1.1-2.1c0.4-0.5,0.3-1.2-0.4-1.3
				c-0.2,0-0.5,0-0.7,0c-0.5,0.1-1,0.1-1.6,0.2c-0.6,0.1-1.2,0.3-1.7,0.7c-0.1,0.1-0.3,0.3-0.4,0.3c-0.3,0.1-0.6,0.1-0.8,0.1
				c-0.4,0.1-0.9,0.2-1.2,0.4c-0.4,0.3-0.9,0.7-1.3,1c-0.2,0.2-0.4,0.4-0.6,0.6c-0.3,0.4-0.4,0.9-0.6,1.3c-0.2,0.4-0.3,0.9-0.5,1.3
				c-0.1-0.1-0.2-0.1-0.3-0.2c-0.5-0.6-1-1.1-1.4-1.7c0,0-0.1-0.1-0.1-0.2c0-0.5-0.3-0.8-0.7-1c-0.5-0.2-1.1-0.4-1.7-0.1
				c-0.2-0.2-0.3-0.3-0.5-0.5c-0.8-0.8-1.5-1.6-2.3-2.3c0,0-0.1-0.1-0.1-0.2c0-0.3,0-0.6-0.2-0.8c-0.2-0.2-0.4-0.4-0.6-0.6
				c-0.3-0.3-0.6-0.6-1-0.5c0,0-0.1,0-0.1-0.1c-0.1-0.2-0.2-0.4-0.3-0.6c-0.1-0.2-0.1-0.4-0.2-0.5c-0.3-0.4-0.9-0.6-1.2-0.5
				c-0.4,0.2-0.9,0.3-1.2,0.7c0,0.1-0.1,0.1-0.1,0.1c-0.3,0.1-0.4,0.4-0.6,0.7c-0.2,0.4-0.3,0.8-0.5,1.2c-0.3,0.6,0.3,1.4,0.9,1.5
				c0.4,0.1,0.8,0.3,1.2,0.4c0.1,0,0.1,0.1,0.1,0.2c0,0.2,0,0.4,0,0.5c0.1,0.2,0.1,0.4,0,0.6c-0.1,0.1-0.1,0.3-0.1,0.5
				c-0.1,0.2-0.3,0.4-0.5,0.5c-0.4,0.4-0.5,1-0.7,1.5c-0.1,0.3-0.1,0.7-0.2,1c-0.1,0.5-0.1,0.9,0,1.4c0,0.1,0,0.2,0,0.2
				c-0.1,0.2-0.1,0.5,0,0.7c0.2,0.3,0.1,0.6,0.1,0.9c0,0.4,0,0.9,0,1.3c0,0.3,0.1,0.6,0.2,0.8c0.1,0.1,0.1,0.3,0.1,0.4
				c0,0.5-0.1,1,0.2,1.5c0,0,0,0.1,0,0.2c0,0.2-0.1,0.5-0.1,0.7c0.1,0.4,0.3,0.8,0.5,1.2c0.1,0.1,0.1,0.3,0.2,0.4
				c0.1,0.5,0.2,1,0.6,1.4c0,0,0,0.1,0,0.1c0.1,0.3,0.1,0.6,0.2,0.9c0,0.1,0,0.2,0,0.2c0,0.3,0.1,0.5,0.4,0.6c0.1,0,0.2,0.1,0.2,0.2
				c0.1,0.4,0.3,0.8,0.4,1.2c0.1,0.2,0.2,0.4,0.4,0.4c0,0,0.1,0,0.1,0.1c0.1,0.3,0.3,0.4,0.5,0.5c0,0.2,0,0.4,0.1,0.6
				c0.1,0.5,0.3,1,0.4,1.5c0.1,0.5,0.3,0.9,0.4,1.3c0,0,0,0.1,0,0.1c-0.1,0.4-0.2,0.8-0.2,1.2c0,0.1,0,0.3,0.1,0.4
				c0.1,0.3,0.3,0.6,0.3,0.9c0.1,0.7,0.2,1.5,0,2.2c-0.1,0.5,0,1.1,0.1,1.6c0.1,0.9,0.2,1.8,0.3,2.8c0,0.3,0.1,0.7,0.1,1l0.4-1
				c-0.1-0.5-0.1-1-0.2-1.6c-0.1-0.9-0.3-1.9-0.2-2.8c0.2-0.9,0-1.8-0.1-2.7c0-0.2-0.1-0.4-0.2-0.6c-0.1-0.5,0-1,0.1-1.5
				c0.1-0.4,0.2-0.8,0.3-1.2c0-0.1,0-0.2,0-0.3c0,0,0,0-0.1,0c-0.1,0.3-0.2,0.6-0.3,0.8c-0.3-0.3-0.4-0.6-0.3-1c0-0.1,0-0.3-0.1-0.4
				c-0.1-0.3-0.2-0.7-0.3-1c-0.1-0.5,0-1,0-1.6c0-0.4,0-0.9,0-1.4c0-0.1,0-0.2-0.1-0.3c-0.4,0.7-0.4,1.5-0.5,2.2c0,0,0,0-0.1,0
				c0-0.1-0.1-0.2-0.1-0.3c-0.2-0.5-0.2-1.1-0.2-1.7c0,0,0,0-0.1-0.1c0,0.4-0.1,0.9-0.1,1.3c-0.3-0.2-0.3-0.5-0.4-0.8
				c-0.1-0.3-0.2-0.6-0.2-0.9c-0.1-0.3-0.1-0.5-0.1-0.8c0,0,0-0.1-0.1-0.2c0,0.1-0.1,0.3-0.1,0.4c0,0,0,0,0,0c0-0.2-0.1-0.4-0.1-0.6
				c0-0.4,0-0.9,0-1.3c0-0.3-0.1-0.5-0.1-0.8c-0.1,0.4-0.2,0.7-0.3,1.1c-0.3-0.5-0.3-1-0.4-1.6c0,0,0,0-0.1,0c0,0,0,0.1,0,0.2
				c0,0-0.1,0-0.1-0.1c-0.1-0.3-0.3-0.6-0.2-0.9c0-0.2,0-0.4,0-0.6c0-0.2,0.1-0.3,0.1-0.5c0-0.1,0-0.3,0-0.4l-0.1,0
				c0,0.1-0.1,0.2-0.2,0.3c-0.2-0.9,0-1.6,0-2.4c0,0,0,0-0.1,0c-0.1,0.2-0.1,0.3-0.2,0.5c0-0.1-0.1-0.1-0.1-0.1c0-0.5,0-1,0-1.5
				c0-0.4,0-0.7,0-1.1c0,0,0,0,0-0.1c-0.2-0.2-0.1-0.4-0.1-0.5c0-0.1,0.1-0.3,0-0.4c-0.2-0.4,0-0.8,0-1.2c0-0.3,0-0.6,0.1-0.9
				c0.2-0.5,0.2-1.1,0.7-1.4c0.2-0.2,0.4-0.4,0.5-0.6c0,0,0.1-0.1,0.1-0.2c0-0.3,0.1-0.5,0.3-0.7c0,0,0,0,0-0.1
				c-0.4-0.3-0.3-0.7-0.3-1.1c0-0.1,0-0.2-0.1-0.2c-0.4-0.2-0.9-0.4-1.3-0.6c-0.1,0-0.3-0.1-0.4-0.1c-0.5-0.1-0.7-0.4-0.5-0.8
				c0.1-0.4,0.3-0.8,0.6-1.2c0.3-0.4,0.6-0.7,1.1-0.9c0.1,0,0.2-0.1,0.3-0.2c0.3-0.2,0.7,0,0.8,0.4c0.2,0.5,0.4,1,0.8,1.5
				c0,0,0.1,0.1,0.1,0.2c0-0.1,0-0.2,0.1-0.2c0,0,0.1-0.1,0.2-0.1c0.2,0.2,0.5,0.3,0.7,0.5c0.1,0.1,0.1,0.2,0.2,0.3
				c0.2,0,0.3,0.1,0.3,0.3c-0.1,0-0.1-0.1-0.1-0.1c-0.1,0.4,0.1,0.7,0.4,1c0.6,0.6,1.2,1.2,1.8,1.8c0.4,0.4,0.8,0.8,1.2,1.2
				c0.1,0.1,0.2,0.1,0.3,0.1c0-0.3,0.2-0.4,0.5-0.4c0.4,0,0.7,0.1,1,0.3c0.1,0.1,0.2,0.3,0.2,0.5c0.1,0.3,0.3,0.5,0.5,0.8
				c0.3,0.4,0.6,0.7,0.9,1.1c0.1,0.1,0.1,0.1,0.2,0.2c0.2,0.2,0.4,0.4,0.6,0.6c0.1,0.1,0.2,0.1,0.4,0c0.2-0.1,0.3-0.3,0.3-0.5
				c0.2-0.5,0.4-1,0.6-1.5c0.1-0.3,0.2-0.6,0.4-0.9c0.2-0.3,0.5-0.5,0.7-0.8c0.2-0.2,0.5-0.4,0.7-0.6c0.4-0.4,0.9-0.6,1.5-0.6
				c0.2,0,0.5,0,0.7-0.1c0.1,0,0.3-0.1,0.4-0.2c0.4-0.4,1-0.6,1.5-0.7c0.6-0.1,1.3-0.2,1.9-0.3c0.1,0,0.1,0,0.2,0
				c0.1,0,0.3,0.1,0.4,0.2c0,0-0.1,0.2-0.1,0.3c-0.6,0.8-1,1.6-1.2,2.5c0,0.1,0,0.2,0.1,0.3c0.6,0.6,0.9,1.3,1.1,2
				c0.1,0.4,0.3,0.7,0.4,1c0.1,0.3,0.1,0.6,0,0.9c-0.2,0.4-0.4,0.9-0.6,1.3c0,0,0,0.1,0,0.1c-0.2,0.2-0.2,0.4-0.1,0.7
				c0.1,0.1,0.1,0.3,0.1,0.4c0,0.1,0,0.2,0.1,0.2c0.2,0.2,0.1,0.3,0.1,0.5c0,0.2,0,0.4,0,0.6c0,0.3-0.2,0.5-0.4,0.7
				c-0.1,0.1-0.1,0.1-0.1,0.2c-0.1,0.2-0.2,0.4-0.4,0.5c0,0-0.1,0.1-0.1,0.1c-0.2,0.3-0.3,0.6-0.5,0.9c0.2,0.2,0.5,0.4,0.7,0.6
				c0.1,0.1,0.3,0.2,0.5,0.3c0.3,0.2,0.7,0.3,1,0.5c0.4,0.2,0.7,0.3,1,0.5c0.1,0.1,0.2,0.2,0.1,0.4c0,0.1,0,0.3-0.1,0.4
				c0,0,0,0.1,0,0.1c0.2,0,0.2,0.2,0.3,0.3c0.1,0.1,0.2,0.2,0.2,0.2c0.4,0,0.7,0.3,1,0.4c0.3,0.2,0.7,0.3,1.1,0.4
				c0.3,0.1,0.7,0.1,0.9,0.5c0.1,0.2,0.1,0.4,0.2,0.5c0,0,0,0.1,0.1,0.1c0.3,0.4,0.5,0.8,0.8,1.2c0.1,0.1,0.1,0.2,0.1,0.3
				c0.1,0.2,0.3,0.4,0.5,0.6c0.2,0.2,0.4,0.3,0.6,0.3c0,0,0.1,0,0.1,0.1c0.1,0.4,0.5,0.4,0.8,0.7c-0.1-0.5-0.5-0.9-0.7-1.3
				c-0.3-0.5-0.6-1-0.9-1.5c-0.2-0.2-0.3-0.5-0.5-0.7c-0.2-0.2-0.3-0.4-0.5-0.6c-0.1-0.1-0.1-0.3-0.2-0.5c-0.1-0.1-0.1-0.2-0.2-0.3
				c-0.1-0.1-0.1-0.3,0-0.4c0.2,0.1,0.3,0.3,0.4,0.4c0.4,0.5,0.9,0.9,1.3,1.4c0.5,0.6,1,1.2,1.5,1.8c0.4,0.4,0.7,0.9,1.1,1.2
				c0.2,0.2,0.4,0.4,0.4,0.6c0,0.1,0.1,0.2,0.2,0.2c0.2,0.2,0.4,0.3,0.5,0.5c0.1,0,0.1,0.1,0.2,0.1c0.2,0.1,0.3,0.2,0.5,0.3
				c0.1,0,0.2,0.1,0.2,0.1c0.1,0,0.3,0.1,0.4,0.1c0.1,0,0.1,0.2,0.1,0.2l-0.1,0.1c0.3,0.1,0.6,0.2,0.9,0.3c-0.1,0.2-0.2,0.3-0.3,0.4
				c0.3,0.2,0.6,0.3,0.8,0.5c0.1,0,0.1,0.2,0.1,0.3c0,0.2,0,0.3,0.2,0.4c0.1,0.1,0.2,0.2,0.1,0.3c0,0.1,0,0.3,0.1,0.4
				c0.1,0.1,0.2,0.3,0.3,0.4c-0.1,0-0.1,0-0.2-0.1c0.1,0.4,0.1,0.8,0.2,1.2c-0.1,0-0.1,0-0.2,0c0,0.4,0,0.7-0.1,1.1c0,0,0,0,0,0.1
				l0.9,0c0,0,0,0,0-0.1c0-0.2,0.1-0.3,0.2-0.5c0.1-0.3,0.3-0.5,0.2-0.8C99,61.5,99.1,61.4,99.1,61.4z M75.8,46.1
				c-0.1-0.1-0.2-0.2-0.3-0.2c-0.2,0-0.4-0.1-0.4-0.2c-0.1-0.1-0.1-0.2-0.1-0.4c0-0.3-0.2-0.5-0.4-0.6c-0.4-0.4-0.5-0.8-0.4-1.3
				c0.1-0.7-0.2-1.2-0.7-1.4c0,0,0,0.1,0,0.1c0,0.4,0.1,0.7,0.1,1.1c0,0.2,0,0.5,0.2,0.7c0.1,0.2,0.2,0.4,0.1,0.6c0,0,0,0.2,0.1,0.2
				c0.2,0.1,0.2,0.2,0.2,0.3c0.1,0.3,0.1,0.7,0.2,1c0.2,0.8,0.4,1.6,0.5,2.5c0,0.1,0,0.2,0,0.3c0,0,0.1,0,0.1,0c0.3-0.5,0.7-1,1-1.5
				C76.1,46.8,76.2,46.4,75.8,46.1z M75.5,46.7c-0.1,0.1-0.2,0.3-0.3,0.4l0,0c0-0.2,0-0.5-0.1-0.7c0.1,0,0.2,0,0.2,0
				C75.4,46.5,75.5,46.6,75.5,46.7z M73.2,41.9c0-0.1,0-0.2-0.1-0.2c-0.3-0.2-0.5-0.4-0.8-0.6c0,0.6,0,1.1,0.1,1.6
				c0.1,0.4,0.3,0.8,0.3,1.3c0,0.2,0.1,0.4,0.1,0.7c0.1-0.1,0.1-0.1,0.1-0.2C73.3,43.6,73.2,42.7,73.2,41.9z M71.6,40.5
				c0,0.1,0,0.2,0,0.3c0,0.6,0,1.2,0,1.8c0,0.7,0,1.5-0.1,2.2c-0.1,0.3,0,0.7,0,1c0,0,0,0,0.1,0c0-0.2,0.1-0.4,0.1-0.6
				c0,0,0.1-0.1,0.1-0.1c0,0,0-0.1,0-0.1c0-0.1,0-0.3,0-0.4c0-0.2,0.1-0.4,0.1-0.6c0-0.2,0.1-0.4,0.1-0.5c0,0,0-0.1,0-0.1
				c0-0.7,0-1.5,0.1-2.2C72.1,40.8,71.9,40.6,71.6,40.5z M71.9,47.8c0-0.3-0.1-0.5-0.1-0.8c0-0.2-0.1-0.3-0.3-0.4
				c0,0.8,0.1,1.5,0.1,2.3c0.1-0.3,0.2-0.5,0.2-0.8C71.9,48,71.9,47.9,71.9,47.8z M70.8,39.7C70.7,39.7,70.7,39.7,70.8,39.7
				c0,1-0.1,2,0,2.9v-0.4c0-0.8,0-1.5,0-2.3C70.8,39.9,70.8,39.8,70.8,39.7z M70.6,46.5c-0.1,0.1-0.1,0.1-0.2,0.2
				c-0.2,0.3-0.3,0.7-0.5,1c0,0,0,0.1,0,0.1c0,0.3,0,0.7,0,1c0,0.2,0,0.5,0.2,0.6c0.1,0.1,0.1,0.2,0.1,0.2c0.1,0.2,0.3,0.4,0.4,0.7
				c0,0,0,0,0.1,0C70.8,49.1,70.7,47.9,70.6,46.5z M70.3,45c0-0.5-0.1-1-0.1-1.5c0-1.1,0-2.3,0-3.4v-0.5c0,0-0.1,0-0.1,0
				c0,0.1-0.1,0.3-0.1,0.4c0,0.6-0.1,1.3-0.1,1.9c0,0.5,0,1,0,1.5c0,0.4,0,0.8,0,1.2c0,0.5-0.1,0.9-0.2,1.4c0,0,0.1,0,0.1,0
				c0.2-0.3,0.4-0.5,0.6-0.8C70.3,45.1,70.3,45.1,70.3,45z M69.7,39.2c-0.1,0-0.2-0.1-0.3-0.2c-0.1-0.1-0.1-0.2-0.1-0.2
				c-0.1-0.1-0.1-0.3-0.1-0.5c0-0.3,0-0.5-0.3-0.7c-0.9-0.7-1.7-1.4-2.6-2.1c-0.1-0.1-0.3-0.2-0.4-0.3c0,0.1,0,0.2,0,0.3
				c-0.1,0.3-0.2,0.5-0.1,0.8c0,0.1,0.1,0.3,0.1,0.4c0,0.2,0.1,0.4-0.2,0.4c0,0,0,0.1,0,0.2c0.1,0.2,0.2,0.4,0.2,0.7
				c0,0.1,0,0.2,0.1,0.4c0.1,0.2,0.2,0.5,0.2,0.8c0.1,0.5,0.2,1.1,0.2,1.6c0,0,0,0.1,0,0.1c0.2,0.4,0.1,0.9,0.2,1.3c0,0,0,0,0,0.1
				c-0.1,0.1,0,0.2,0,0.3c0,0.2,0.1,0.3,0.1,0.5c0.1,0.5,0.2,1.1,0.3,1.6c0.1,0.5,0.2,1.1,0.6,1.5c0,0,0,0.1,0,0.1
				c-0.1,0.3,0.1,0.4,0.2,0.6c0.2,0.2,0.4,0.4,0.5,0.5c0.1,0.1,0.1,0.2,0.2,0.3c0.1-0.4,0.2-0.7,0.2-1c-0.1-0.6,0-1.2,0.1-1.9
				c0.1-0.4,0.2-0.9,0.2-1.3c0-0.4,0-0.7,0.1-1.1c0-0.5,0-0.9,0.1-1.4c0-0.6,0-1.3,0.5-1.8C69.9,39.3,69.8,39.3,69.7,39.2z M69,39.5
				c-0.1,0.2-0.2,0.5-0.2,0.7c0,0.9-0.1,1.7-0.1,2.6c0,0.5-0.1,1-0.2,1.5c-0.1,0.7-0.2,1.3-0.3,1.9c-0.1-0.2-0.2-0.5-0.4-0.8
				c-0.2-0.4-0.3-0.9-0.4-1.4c-0.1-0.3-0.1-0.6-0.1-0.9c0,0,0-0.1,0-0.1c-0.2-0.4-0.1-0.9,0-1.3c0-0.2-0.1-0.4-0.1-0.5
				c-0.1-0.4-0.2-0.8-0.3-1.3c-0.1-0.4-0.1-0.7-0.2-1.1c-0.1-0.4-0.2-0.7-0.3-1.1c0-0.1,0-0.2,0-0.4c0.1-0.2,0.1-0.4,0.1-0.5
				c0-0.2-0.1-0.3-0.1-0.5c0.4,0.3,0.8,0.6,1.2,0.9c0.3,0.2,0.6,0.5,0.9,0.7c0.1,0.1,0.2,0.2,0.2,0.4c0,0.4,0.2,0.8,0.4,1.1
				C69,39.4,69,39.5,69,39.5z M71.9,47.8c0-0.3-0.1-0.5-0.1-0.8c0-0.2-0.1-0.3-0.3-0.4c0,0.8,0.1,1.5,0.1,2.3
				c0.1-0.3,0.2-0.5,0.2-0.8C71.9,48,71.9,47.9,71.9,47.8z M73.2,41.9c0-0.1,0-0.2-0.1-0.2c-0.3-0.2-0.5-0.4-0.8-0.6
				c0,0.6,0,1.1,0.1,1.6c0.1,0.4,0.3,0.8,0.3,1.3c0,0.2,0.1,0.4,0.1,0.7c0.1-0.1,0.1-0.1,0.1-0.2C73.3,43.6,73.2,42.7,73.2,41.9z
				 M69.7,39.2c-0.1,0-0.2-0.1-0.3-0.2c-0.1-0.1-0.1-0.2-0.1-0.2c-0.1-0.1-0.1-0.3-0.1-0.5c0-0.3,0-0.5-0.3-0.7
				c-0.9-0.7-1.7-1.4-2.6-2.1c-0.1-0.1-0.3-0.2-0.4-0.3c0,0.1,0,0.2,0,0.3c-0.1,0.3-0.2,0.5-0.1,0.8c0,0.1,0.1,0.3,0.1,0.4
				c0,0.2,0.1,0.4-0.2,0.4c0,0,0,0.1,0,0.2c0.1,0.2,0.2,0.4,0.2,0.7c0,0.1,0,0.2,0.1,0.4c0.1,0.2,0.2,0.5,0.2,0.8
				c0.1,0.5,0.2,1.1,0.2,1.6c0,0,0,0.1,0,0.1c0.2,0.4,0.1,0.9,0.2,1.3c0,0,0,0,0,0.1c-0.1,0.1,0,0.2,0,0.3c0,0.2,0.1,0.3,0.1,0.5
				c0.1,0.5,0.2,1.1,0.3,1.6c0.1,0.5,0.2,1.1,0.6,1.5c0,0,0,0.1,0,0.1c-0.1,0.3,0.1,0.4,0.2,0.6c0.2,0.2,0.4,0.4,0.5,0.5
				c0.1,0.1,0.1,0.2,0.2,0.3c0.1-0.4,0.2-0.7,0.2-1c-0.1-0.6,0-1.2,0.1-1.9c0.1-0.4,0.2-0.9,0.2-1.3c0-0.4,0-0.7,0.1-1.1
				c0-0.5,0-0.9,0.1-1.4c0-0.6,0-1.3,0.5-1.8C69.9,39.3,69.8,39.3,69.7,39.2z M69,39.5c-0.1,0.2-0.2,0.5-0.2,0.7
				c0,0.9-0.1,1.7-0.1,2.6c0,0.5-0.1,1-0.2,1.5c-0.1,0.7-0.2,1.3-0.3,1.9c-0.1-0.2-0.2-0.5-0.4-0.8c-0.2-0.4-0.3-0.9-0.4-1.4
				c-0.1-0.3-0.1-0.6-0.1-0.9c0,0,0-0.1,0-0.1c-0.2-0.4-0.1-0.9,0-1.3c0-0.2-0.1-0.4-0.1-0.5c-0.1-0.4-0.2-0.8-0.3-1.3
				c-0.1-0.4-0.1-0.7-0.2-1.1c-0.1-0.4-0.2-0.7-0.3-1.1c0-0.1,0-0.2,0-0.4c0.1-0.2,0.1-0.4,0.1-0.5c0-0.2-0.1-0.3-0.1-0.5
				c0.4,0.3,0.8,0.6,1.2,0.9c0.3,0.2,0.6,0.5,0.9,0.7c0.1,0.1,0.2,0.2,0.2,0.4c0,0.4,0.2,0.8,0.4,1.1C69,39.4,69,39.5,69,39.5z
				 M75.8,46.1c-0.1-0.1-0.2-0.2-0.3-0.2c-0.2,0-0.4-0.1-0.4-0.2c-0.1-0.1-0.1-0.2-0.1-0.4c0-0.3-0.2-0.5-0.4-0.6
				c-0.4-0.4-0.5-0.8-0.4-1.3c0.1-0.7-0.2-1.2-0.7-1.4c0,0,0,0.1,0,0.1c0,0.4,0.1,0.7,0.1,1.1c0,0.2,0,0.5,0.2,0.7
				c0.1,0.2,0.2,0.4,0.1,0.6c0,0,0,0.2,0.1,0.2c0.2,0.1,0.2,0.2,0.2,0.3c0.1,0.3,0.1,0.7,0.2,1c0.2,0.8,0.4,1.6,0.5,2.5
				c0,0.1,0,0.2,0,0.3c0,0,0.1,0,0.1,0c0.3-0.5,0.7-1,1-1.5C76.1,46.8,76.2,46.4,75.8,46.1z M75.5,46.7c-0.1,0.1-0.2,0.3-0.3,0.4
				l0,0c0-0.2,0-0.5-0.1-0.7c0.1,0,0.2,0,0.2,0C75.4,46.5,75.5,46.6,75.5,46.7z M70.3,45c0-0.5-0.1-1-0.1-1.5c0-1.1,0-2.3,0-3.4
				v-0.5c0,0-0.1,0-0.1,0c0,0.1-0.1,0.3-0.1,0.4c0,0.6-0.1,1.3-0.1,1.9c0,0.5,0,1,0,1.5c0,0.4,0,0.8,0,1.2c0,0.5-0.1,0.9-0.2,1.4
				c0,0,0.1,0,0.1,0c0.2-0.3,0.4-0.5,0.6-0.8C70.3,45.1,70.3,45.1,70.3,45z M70.8,39.7C70.7,39.7,70.7,39.7,70.8,39.7
				c0,1-0.1,2,0,2.9v-0.4c0-0.8,0-1.5,0-2.3C70.8,39.9,70.8,39.8,70.8,39.7z M70.6,46.5c-0.1,0.1-0.1,0.1-0.2,0.2
				c-0.2,0.3-0.3,0.7-0.5,1c0,0,0,0.1,0,0.1c0,0.3,0,0.7,0,1c0,0.2,0,0.5,0.2,0.6c0.1,0.1,0.1,0.2,0.1,0.2c0.1,0.2,0.3,0.4,0.4,0.7
				c0,0,0,0,0.1,0C70.8,49.1,70.7,47.9,70.6,46.5z"/>
		</g>
	</g>
</g>
</svg>
